<?xml version="1.0" standalone="no"?><!DOCTYPE svg PUBLIC "-//W3C//DTD SVG 1.1//EN" "http://www.w3.org/Graphics/SVG/1.1/DTD/svg11.dtd"><svg t="1495766101405" class="icon" style="" viewBox="0 0 1024 1024" version="1.1" xmlns="http://www.w3.org/2000/svg" p-id="7183" xmlns:xlink="http://www.w3.org/1999/xlink" width="200" height="200"><defs><style type="text/css"></style></defs><path d="M950.797718 950.96247c-11.301405 11.122326-29.630884 11.122326-40.943545 0l-231.875276-228.190347c-64.696552 51.661665-147.076877 82.723132-236.883342 82.723132-207.869512 0-376.377512-165.832052-376.377512-370.398328S233.226042 64.697576 441.095554 64.697576c207.858256 0 376.371373 165.832052 376.371373 370.398328 0 95.650573-37.157309 182.546752-97.635789 248.274798l230.96658 227.286767C962.110379 921.797191 962.110379 939.834004 950.797718 950.96247zM441.095554 121.681462c-175.889115 0-318.473673 140.318956-318.473673 313.414442 0 173.101626 142.584558 313.419559 318.473673 313.419559 175.882975 0 318.467533-140.318956 318.467533-313.419559C759.563088 262.000418 616.97853 121.681462 441.095554 121.681462z" p-id="7184"></path></svg>