<?xml version="1.0" standalone="no"?><!DOCTYPE svg PUBLIC "-//W3C//DTD SVG 1.1//EN" "http://www.w3.org/Graphics/SVG/1.1/DTD/svg11.dtd"><svg t="1488504168133" class="icon" style="" viewBox="0 0 1024 1024" version="1.1" xmlns="http://www.w3.org/2000/svg" p-id="2016" xmlns:xlink="http://www.w3.org/1999/xlink" width="200" height="200"><defs><style type="text/css"></style></defs><path d="M828.177056 196.271152C743.804437 111.896486 631.626541 65.431222 512.305969 65.431222c-119.320573 0-231.499491 46.465265-315.871087 130.839931-84.372619 84.371596-130.838907 196.550515-130.838907 315.871087 0 86.930885 24.996301 171.207313 72.28635 243.720837 9.374508 14.372336 28.628014 18.421558 43.002396 9.05319 14.375405-9.374508 18.428721-28.628014 9.054213-43.004443-40.687678-62.386886-62.194504-134.925992-62.194504-209.769584 0-212.047464 172.514075-384.561539 384.560516-384.561539 212.048487 0 384.560516 172.515099 384.560516 384.561539S724.353432 896.703779 512.305969 896.703779c-70.216201 0-138.91177-19.09387-198.657502-55.213509-14.686491-8.881274-33.790594-4.172019-42.668799 10.513448-8.879228 14.687514-4.172019 33.791617 10.513448 42.668799 69.447698 41.986253 149.260465 64.179718 230.81183 64.179718 119.321596 0 231.499491-46.465265 315.872111-130.839931 84.371596-84.371596 130.837884-196.550515 130.837884-315.871087S912.549675 280.642748 828.177056 196.271152z" p-id="2017"></path><path d="M258.053264 745.005798c0 17.161868 13.912871 31.074739 31.074739 31.074739s31.074739-13.912871 31.074739-31.074739c0-105.355513 85.712127-191.065594 191.066617-191.065594s191.066617 85.711104 191.066617 191.065594c0 17.161868 13.912871 31.074739 31.074739 31.074739 17.161868 0 31.074739-13.912871 31.074739-31.074739 0-103.795994-62.784952-193.188954-152.36313-232.239342 48.228421-32.518624 80.010265-87.648223 80.010265-150.064784 0-99.729375-81.134879-180.864254-180.863231-180.864254s-180.863231 81.134879-180.863231 180.864254c0 62.415538 31.781844 117.54616 80.010265 150.064784C320.838216 551.816844 258.053264 641.209804 258.053264 745.005798zM392.553561 362.701672c0-65.459874 53.254901-118.715799 118.714775-118.715799S629.982088 297.241798 629.982088 362.701672 576.727187 481.417471 511.267313 481.417471 392.553561 428.16257 392.553561 362.701672z" p-id="2018"></path></svg>